<?xml version="1.0" encoding="UTF-8" standalone="no"?>
<!-- Created with Inkscape (http://www.inkscape.org/) -->

<svg
   xmlns:dc="http://purl.org/dc/elements/1.1/"
   xmlns:cc="http://creativecommons.org/ns#"
   xmlns:rdf="http://www.w3.org/1999/02/22-rdf-syntax-ns#"
   xmlns:svg="http://www.w3.org/2000/svg"
   xmlns="http://www.w3.org/2000/svg"
   xmlns:xlink="http://www.w3.org/1999/xlink"
   xmlns:sodipodi="http://sodipodi.sourceforge.net/DTD/sodipodi-0.dtd"
   xmlns:inkscape="http://www.inkscape.org/namespaces/inkscape"
   width="744.09448"
   height="1052.3622"
   id="svg2"
   version="1.1"
   inkscape:version="0.48.4 r9939"
   sodipodi:docname="Deckblatt.svg">
  <defs
     id="defs4" />
  <sodipodi:namedview
     id="base"
     pagecolor="#ffffff"
     bordercolor="#666666"
     borderopacity="1.0"
     inkscape:pageopacity="0.0"
     inkscape:pageshadow="2"
     inkscape:zoom="0.9899495"
     inkscape:cx="249.47726"
     inkscape:cy="184.06473"
     inkscape:document-units="mm"
     inkscape:current-layer="layer3"
     showgrid="false"
     inkscape:window-width="1680"
     inkscape:window-height="1000"
     inkscape:window-x="0"
     inkscape:window-y="0"
     inkscape:window-maximized="1"
     showguides="false"
     inkscape:guide-bbox="true"
     units="mm"
     inkscape:snap-grids="false"
     inkscape:snap-bbox="true"
     inkscape:snap-bbox-midpoints="true">
    <sodipodi:guide
       orientation="0,1"
       position="-35.433071,350.7874"
       id="guide3069" />
    <sodipodi:guide
       orientation="0,1"
       position="-35.433071,701.5748"
       id="guide3071" />
    <inkscape:grid
       units="mm"
       empspacing="10"
       visible="true"
       enabled="true"
       snapvisiblegridlinesonly="true"
       type="xygrid"
       id="grid3073" />
    <sodipodi:guide
       orientation="0,1"
       position="-35.433071,526.1811"
       id="guide3079" />
    <sodipodi:guide
       orientation="0,1"
       position="-35.433071,175.3937"
       id="guide3081" />
    <sodipodi:guide
       orientation="0,1"
       position="-35.433071,876.9685"
       id="guide3083" />
    <sodipodi:guide
       orientation="0,1"
       position="-35.433071,789.27165"
       id="guide3085" />
    <sodipodi:guide
       orientation="0,1"
       position="-35.433071,613.87795"
       id="guide3087" />
    <sodipodi:guide
       orientation="0,1"
       position="-35.433071,87.69685"
       id="guide3089" />
  </sodipodi:namedview>
  <metadata
     id="metadata7">
    <rdf:RDF>
      <cc:Work
         rdf:about="">
        <dc:format>image/svg+xml</dc:format>
        <dc:type
           rdf:resource="http://purl.org/dc/dcmitype/StillImage" />
        <dc:title />
      </cc:Work>
    </rdf:RDF>
  </metadata>
  <g
     inkscape:label="Grafik"
     inkscape:groupmode="layer"
     id="layer1"
     style="display:none"
     transform="translate(0,-2.5390623e-6)"
     sodipodi:insensitive="true">
    <image
       y="167.73761"
       x="206.1564"
       id="image3031"
       xlink:href="file:///home/wolfgang/Noten/Zelenka/Sub%20tuum%20praesidium%20ZWV%20157/Deckblatt/Titel.png"
       height="52.999947"
       width="318.42032" />
  </g>
  <g
     inkscape:groupmode="layer"
     id="layer2"
     inkscape:label="Trace"
     style="display:none"
     transform="translate(0,-2.5390623e-6)"
     sodipodi:insensitive="true" />
  <g
     inkscape:groupmode="layer"
     id="layer3"
     inkscape:label="Deckblatt"
     transform="translate(0,-2.5390623e-6)"
     style="display:inline">
    <g
       id="g3055"
       transform="translate(93.781433,248.90889)">
      <text
         sodipodi:linespacing="125%"
         id="text3047"
         y="434.14883"
         x="279.31418"
         style="font-size:16px;font-style:normal;font-variant:normal;font-weight:normal;font-stretch:normal;text-align:center;line-height:125%;letter-spacing:2.13999987px;word-spacing:0px;text-anchor:middle;fill:#000000;fill-opacity:1;stroke:none;font-family:EB Garamond 12 All SC;-inkscape-font-specification:EB Garamond 12 All SC"
         xml:space="preserve"><tspan
           y="434.14883"
           x="280.38419"
           id="tspan3049"
           sodipodi:role="line">jan dismas</tspan></text>
      <text
         sodipodi:linespacing="125%"
         id="text3051"
         y="452.66589"
         x="277.94019"
         style="font-size:12px;font-style:normal;font-variant:normal;font-weight:normal;font-stretch:normal;text-align:center;line-height:125%;letter-spacing:5.19000053px;word-spacing:0px;text-anchor:middle;fill:#d40000;fill-opacity:1;stroke:none;font-family:EB Garamond;-inkscape-font-specification:EB Garamond"
         xml:space="preserve"><tspan
           style="font-size:20px;letter-spacing:5.19000053px;fill:#d40000"
           y="452.66589"
           x="280.53519"
           id="tspan3053"
           sodipodi:role="line">ZELENKA</tspan></text>
    </g>
    <text
       xml:space="preserve"
       style="font-size:12px;font-style:normal;font-variant:normal;font-weight:normal;font-stretch:normal;text-align:center;line-height:110.00000238%;letter-spacing:0px;word-spacing:0px;text-anchor:middle;fill:#000000;fill-opacity:1;stroke:none;font-family:EB Garamond;-inkscape-font-specification:EB Garamond"
       x="372.3208"
       y="412.09424"
       id="text3061"
       sodipodi:linespacing="110%"><tspan
         sodipodi:role="line"
         x="372.3208"
         y="412.09424"
         id="tspan3067"
         style="font-size:14px;font-style:normal;line-height:110.00000238%;-inkscape-font-specification:EB Garamond">X Sub tuum praesidium</tspan><tspan
         sodipodi:role="line"
         x="372.3208"
         y="427.49423"
         style="font-size:14px;font-style:normal;line-height:110.00000238%;-inkscape-font-specification:EB Garamond"
         id="tspan3075" /><tspan
         sodipodi:role="line"
         x="372.3208"
         y="442.89423"
         style="font-size:14px;font-style:normal;line-height:110.00000238%;-inkscape-font-specification:EB Garamond"
         id="tspan3077">ZWV Z 157</tspan></text>
    <text
       xml:space="preserve"
       style="font-size:14px;font-style:normal;font-variant:normal;font-weight:normal;font-stretch:normal;text-align:center;line-height:125%;letter-spacing:1.84000015px;word-spacing:0px;text-anchor:middle;fill:#000000;fill-opacity:1;stroke:none;font-family:EB Garamond 12 All SC;-inkscape-font-specification:EB Garamond 12 All SC"
       x="372.06738"
       y="967.76636"
       id="text3099"
       sodipodi:linespacing="125%"><tspan
         sodipodi:role="line"
         x="372.9874"
         y="967.76636"
         id="tspan3023">full score</tspan></text>
    <text
       sodipodi:linespacing="110%"
       id="text3021"
       y="876.96851"
       x="371.86884"
       style="font-size:12px;font-style:normal;font-variant:normal;font-weight:normal;font-stretch:normal;text-align:center;line-height:110.00000238%;letter-spacing:0px;word-spacing:0px;text-anchor:middle;fill:#000000;fill-opacity:1;stroke:none;font-family:EB Garamond;-inkscape-font-specification:EB Garamond"
       xml:space="preserve"><tspan
         id="tspan3032"
         style="font-size:14px;font-style:normal;line-height:110.00000238%;-inkscape-font-specification:EB Garamond"
         y="876.96851"
         x="371.86884"
         sodipodi:role="line">SATB (soli) / SATB (coro) / BOrg</tspan></text>
    <path
       style="fill:#000000;display:inline"
       d="m 510.29993,284.95386 c -0.26026,-0.11078 -0.47321,-0.2891 -0.47321,-0.39627 0,-0.10717 -0.2768,-0.49116 -0.61509,-0.8533 -0.56691,-0.6069 -0.6106,-0.76587 -0.55776,-2.03035 0.0315,-0.75454 0.15895,-1.47353 0.28317,-1.59775 0.12423,-0.12422 0.17534,-0.35749 0.11361,-0.51838 -0.0618,-0.16089 0.002,-0.42914 0.13969,-0.59611 0.13858,-0.16697 0.18624,-0.40994 0.1059,-0.53992 -0.0803,-0.12999 0.0471,-0.37166 0.28323,-0.53704 0.28757,-0.20142 0.4231,-0.51973 0.41046,-0.96407 -0.013,-0.46138 0.13477,-0.78777 0.48568,-1.07192 0.31739,-0.257 0.48159,-0.58366 0.44268,-0.88062 -0.0415,-0.31701 0.11443,-0.58759 0.47487,-0.82375 0.2952,-0.19343 0.53673,-0.53961 0.53673,-0.76929 0,-0.39141 0.68141,-1.46882 1.52842,-2.41669 0.20441,-0.22876 0.667,-0.77452 1.02797,-1.2128 0.65402,-0.79408 0.65488,-0.7985 0.24971,-1.2619 -0.80133,-0.91647 -1.01426,-1.56586 -0.70366,-2.14618 0.33205,-0.62045 1.18907,-1.22843 1.47901,-1.04923 0.11248,0.0695 0.30833,0.53871 0.43521,1.04267 0.28282,1.12314 0.94397,1.4019 1.83035,0.77172 0.31222,-0.22197 0.97455,-0.52529 1.47186,-0.67404 0.83255,-0.24902 0.93867,-0.23597 1.33933,0.16467 0.35367,0.35368 0.39859,0.54464 0.24001,1.02037 -0.10728,0.32189 -0.33142,0.65512 -0.49803,0.74051 -1.22668,0.62866 -2.14393,0.894 -3.14225,0.909 -1.21001,0.0182 -1.43648,0.18056 -2.5238,1.80952 -0.17351,0.25995 -0.43822,0.57824 -0.58824,0.70731 -1.31227,1.12902 -2.77684,3.2564 -2.77684,4.03353 0,0.14153 -0.14196,0.3118 -0.31547,0.37839 -0.17352,0.0666 -0.31857,0.38429 -0.32234,0.70603 -0.004,0.32174 -0.18998,1.10551 -0.41378,1.74172 -0.75905,2.15787 -0.45842,4.10464 0.74339,4.81372 0.83343,0.49173 1.62506,0.42373 2.83201,-0.24327 0.98689,-0.54539 1.45386,-0.98043 1.82713,-1.70226 0.33163,-0.64132 0.21894,-0.88857 -0.46007,-1.0093 -0.28132,-0.05 -0.44314,-0.27062 -0.48859,-0.66603 -0.0545,-0.47426 0.1402,-0.79941 0.98424,-1.64345 0.90414,-0.90412 1.11151,-1.0205 1.47336,-0.82683 0.23164,0.12396 0.48127,0.41477 0.55473,0.64624 0.0735,0.23147 0.25516,0.42086 0.40377,0.42086 0.24344,0 0.53433,-0.18535 2.17925,-1.38857 0.72757,-0.5322 0.80702,-0.18878 0.16926,0.73152 -0.35338,0.5099 -1.04835,1.07764 -1.8276,1.49297 -0.99168,0.52857 -1.28314,0.79894 -1.37923,1.27948 -0.067,0.33511 -0.25243,0.71765 -0.412,0.85008 -0.15956,0.13243 -0.29021,0.39482 -0.29032,0.58309 -2.1e-4,0.39147 -1.24684,1.65931 -2.44597,2.48757 -0.61608,0.42554 -1.12029,0.57759 -2.07566,0.62592 -0.69405,0.0351 -1.47485,-0.0268 -1.73512,-0.13757 z m -86.28265,-5.91604 c 0,-0.12805 -0.13109,-0.18251 -0.29133,-0.12102 -0.30029,0.11523 -1.06033,-0.60167 -1.65033,-1.55665 -0.26942,-0.4361 -0.29562,-0.73153 -0.13264,-1.49572 0.15977,-0.74908 0.48729,-1.24498 1.53498,-2.32404 1.42392,-1.46659 3.37162,-2.89105 4.84277,-3.54182 0.76892,-0.34012 0.97009,-0.56605 1.3406,-1.50552 0.23977,-0.60793 0.54767,-1.69916 0.68423,-2.42494 0.13656,-0.72578 0.32603,-1.36765 0.42105,-1.42638 0.095,-0.0587 0.12199,-0.23908 0.0599,-0.40079 -0.0621,-0.16171 0.0227,-0.60823 0.18839,-0.99227 0.27936,-0.64766 0.45388,-1.22741 1.03316,-3.43238 0.12156,-0.46269 0.30454,-1.0056 0.4066,-1.20647 0.10207,-0.20086 0.18559,-0.64252 0.18559,-0.98148 0,-0.33895 0.0988,-0.64922 0.21961,-0.68948 0.12079,-0.0403 0.25964,-0.47554 0.30856,-0.96729 0.0489,-0.49174 0.35232,-1.32428 0.67423,-1.85009 0.32192,-0.52581 0.77458,-1.32359 1.00593,-1.77283 0.50436,-0.97941 2.48441,-2.9445 3.36508,-3.33965 0.34702,-0.15571 0.77291,-0.36739 0.94642,-0.47039 1.12076,-0.66534 1.40353,-0.49209 1.58647,0.97198 0.1288,1.03098 0.0928,1.23385 -0.2808,1.5819 -0.59288,0.55237 -1.51598,0.77131 -1.51598,0.35957 0,-0.17195 0.20543,-0.44903 0.45653,-0.61575 0.5719,-0.37973 0.34736,-0.79977 -0.42751,-0.79977 -0.53124,0 -2.34251,1.11343 -2.34251,1.43999 0,0.0779 -0.24149,0.40213 -0.53665,0.72044 -0.29516,0.31831 -0.47828,0.67317 -0.40696,0.78857 0.0713,0.1154 -0.0658,0.45828 -0.30463,0.76195 -0.23887,0.30367 -0.4343,0.66131 -0.4343,0.79477 0,0.13345 -0.19402,0.61756 -0.43115,1.0758 -0.25604,0.49481 -0.38865,1.05631 -0.3265,1.38265 0.0617,0.32382 -0.0636,0.86336 -0.30498,1.31372 -0.22527,0.42033 -0.40959,1.07581 -0.40959,1.45663 0,0.38082 -0.18847,1.06207 -0.41883,1.51389 -0.23034,0.45182 -0.48144,1.29361 -0.55799,1.87065 -0.0765,0.57705 -0.31396,1.52739 -0.5276,2.11188 -0.41551,1.13675 -0.51644,2.43571 -0.18927,2.43571 0.10956,0 0.79816,-0.44955 1.53025,-0.99901 0.73207,-0.54945 1.74683,-1.28293 2.25502,-1.62995 0.50819,-0.34703 1.38452,-1.18406 1.94739,-1.86007 2.29896,-2.76105 3.41627,-3.06277 2.06851,-0.55858 -0.34239,0.63621 -0.6263,1.45021 -0.63088,1.80889 -0.0133,1.04302 0.38481,1.92432 0.93136,2.0615 0.53253,0.13365 1.7938,-0.0551 1.79538,-0.26871 0,-0.0723 0.29608,-0.44634 0.65678,-0.83121 0.44528,-0.47513 0.7246,-0.63098 0.8701,-0.48549 0.28435,0.28436 -0.35504,1.64353 -0.84802,1.80265 -0.20039,0.0647 -0.66052,0.39591 -1.02252,0.73606 -0.417,0.39184 -0.804,0.5803 -1.05623,0.51435 -0.25093,-0.0656 -0.58481,0.0947 -0.9033,0.43368 -0.65568,0.69794 -0.88552,0.67822 -1.55815,-0.1337 -0.50375,-0.60809 -0.59085,-0.93379 -0.64484,-2.412 -0.009,-0.24998 -0.0788,-0.51723 -0.15481,-0.59388 -0.20439,-0.2061 -1.43918,0.48809 -1.43918,0.8091 0,0.15163 -0.52426,0.54093 -1.16501,0.86512 -0.64073,0.32419 -1.26325,0.77304 -1.38334,0.99744 -0.12011,0.2244 -0.49408,0.50412 -0.83109,0.6216 -0.62178,0.21676 -0.76436,0.41074 -1.62588,2.21232 -0.26592,0.55609 -0.62083,1.27902 -0.78869,1.60649 -0.16785,0.32748 -0.30519,0.70925 -0.30519,0.84836 0,0.56681 -2.25885,3.69988 -2.67816,3.71469 -0.30096,0.0106 -1.70037,1.43571 -1.83912,1.87284 -0.14224,0.44815 -0.95097,0.62006 -0.95097,0.20214 z m 1.42673,-2.07356 c 0.76114,-0.83115 1.35413,-1.6592 1.73257,-2.41937 0.17101,-0.34351 0.47656,-0.79306 0.67899,-0.99901 0.20243,-0.20594 0.36806,-0.65278 0.36806,-0.99298 0,-0.3402 0.0946,-0.67703 0.21031,-0.74852 0.31291,-0.19339 0.25438,-0.73611 -0.0794,-0.73611 -0.15934,0 -0.40667,0.14092 -0.54962,0.31316 -0.14294,0.17223 -0.33979,0.26378 -0.43742,0.20344 -0.0976,-0.0603 -0.32404,0.17359 -0.5031,0.51986 -0.23297,0.45051 -0.62435,0.7357 -1.37602,1.00267 -0.74209,0.26357 -1.05045,0.48613 -1.05045,0.75818 0,0.4063 -0.37519,1.23133 -0.64076,1.40903 -0.15719,0.10518 -0.27036,0.71415 -0.22474,1.20933 0.0303,0.32869 0.79081,1.10416 1.0829,1.10416 0.11957,0 0.47448,-0.28073 0.78868,-0.62384 z m -42.30214,-1.00806 c -0.15534,-0.25134 0.2941,-3.91036 0.51266,-4.17371 0.30297,-0.36505 0.30718,-5.09741 0.006,-6.18247 -0.46366,-1.6677 -0.44072,-2.35296 0.10734,-3.20734 0.54845,-0.85499 0.91668,-0.97286 1.43136,-0.45819 0.32588,0.32588 0.45324,1.38728 0.38305,3.19231 -0.0388,0.99743 0.26895,1.18198 0.58496,0.3508 0.11356,-0.29868 0.85651,-1.1854 1.651,-1.97049 1.33247,-1.3167 1.53261,-1.43844 2.57995,-1.5693 0.81404,-0.10171 1.3532,-0.0509 1.90481,0.17961 1.02924,0.43004 1.11392,0.63657 0.45719,1.11497 -0.48419,0.3527 -0.5222,0.46153 -0.30375,0.8697 0.17159,0.32063 0.37194,0.42776 0.64055,0.3425 0.68083,-0.21608 0.75032,0.64516 0.12795,1.58562 -0.29943,0.45248 -0.54443,0.87194 -0.54443,0.93212 0,0.0602 -0.35601,0.47628 -0.79114,0.92465 -0.5438,0.56034 -0.97338,0.81522 -1.37403,0.81522 -0.32059,0 -0.76151,0.16164 -0.97982,0.35921 -0.3765,0.34073 -0.40963,0.33547 -0.64387,-0.10221 -0.21814,-0.40758 -0.15376,-0.55686 0.55174,-1.27935 0.82437,-0.84423 1.24424,-1.01097 1.3977,-0.55503 0.0685,0.20349 0.16966,0.19587 0.44773,-0.0337 0.19759,-0.16312 0.31501,-0.41186 0.26095,-0.55274 -0.0541,-0.14088 -0.019,-0.33867 0.0779,-0.43952 0.27088,-0.28197 0.32215,-1.40081 0.0835,-1.82172 -0.15372,-0.2711 -0.54499,-0.4019 -1.39806,-0.46736 -1.88157,-0.14439 -2.77882,0.381 -3.02138,1.76918 -0.0283,0.16194 -0.14487,0.35217 -0.25907,0.42275 -0.11419,0.0706 -0.27463,0.39528 -0.35652,0.72157 -0.0819,0.32628 -0.28412,0.64514 -0.4494,0.70856 -0.16527,0.0634 -0.24739,0.2537 -0.18249,0.42284 0.0649,0.16914 -0.0172,0.60648 -0.18248,0.97186 -0.16526,0.36539 -0.34797,1.27953 -0.40601,2.03141 -0.18533,2.40083 -0.37064,3.44802 -0.77231,4.36408 -0.31057,0.70833 -0.50092,0.89385 -0.91712,0.89385 -0.28887,0 -0.56962,-0.0719 -0.6239,-0.15968 z m 7.43497,-12.87999 c 0,-0.11567 -0.14755,-0.21032 -0.32789,-0.21032 -0.18034,0 -0.2694,0.0947 -0.1979,0.21032 0.0715,0.11568 0.21904,0.21032 0.32788,0.21032 0.10885,0 0.19791,-0.0946 0.19791,-0.21032 z m 132.27548,9.01735 c -0.44228,-0.8264 0.70528,-2.03378 1.47868,-1.55579 0.241,0.14894 0.19418,1.32036 -0.0698,1.74754 -0.25921,0.41941 -1.1464,0.29867 -1.40885,-0.19175 z m -302.3045,-1.05146 c -0.45583,-0.10683 -0.86886,-0.23431 -0.91784,-0.28329 -0.19554,-0.19555 0.87827,-1.61297 1.44332,-1.90517 0.33139,-0.17136 1.00841,-0.32455 1.5045,-0.3404 1.2786,-0.0409 1.74324,-0.33637 3.58353,-2.27898 1.34719,-1.4221 1.62894,-1.63548 1.62411,-1.23 -0.003,0.26983 -0.28714,0.76664 -0.63095,1.10403 -0.34381,0.33738 -0.62511,0.69229 -0.62511,0.78869 0,0.0964 -0.14196,0.17526 -0.31547,0.17526 -0.17352,0 -0.31548,0.0946 -0.31548,0.21032 0,0.11567 -0.18712,0.39743 -0.41581,0.62613 -0.41421,0.4142 -0.41421,0.41667 0,0.63835 0.54977,0.29423 0.54711,1.33834 -0.005,1.89028 -0.40584,0.40584 -1.07243,0.51058 -2.88282,0.45299 -0.37096,-0.0118 -0.73146,0.0707 -0.8011,0.18341 -0.14307,0.23149 -0.12096,0.23205 -1.24605,-0.0316 z m 63.66368,-0.085 c -0.55732,-0.39036 -0.84415,-1.65332 -0.47618,-2.0967 0.15142,-0.18245 0.20087,-0.53664 0.11994,-0.85908 -0.0757,-0.30175 -0.0444,-0.66107 0.0696,-0.79847 0.11404,-0.13741 0.1308,-0.37369 0.0373,-0.52506 -0.22559,-0.36501 -0.94589,0.0649 -1.25859,0.75121 -0.12142,0.2665 -0.36002,0.48455 -0.53021,0.48455 -0.39129,0 -2.22339,1.2254 -2.22339,1.48712 0,0.3502 -1.1875,0.20559 -1.54368,-0.18799 -0.32339,-0.35734 -0.31718,-0.44506 0.0913,-1.29049 0.34343,-0.71084 0.38004,-0.94308 0.16919,-1.07339 -0.21047,-0.13008 -0.21757,-0.33407 -0.0326,-0.93678 0.13005,-0.42377 0.18391,-0.90745 0.11967,-1.07485 -0.0642,-0.1674 0.0254,-0.46646 0.19931,-0.66459 0.17386,-0.19812 0.38582,-0.59683 0.47102,-0.88601 0.19148,-0.64991 0.71126,-1.2619 1.07177,-1.2619 0.57024,0 0.55622,0.19861 -0.21228,3.00728 -0.38746,1.41607 -0.43158,2.58596 -0.10514,2.78771 0.32594,0.20144 1.93639,-0.67592 2.66987,-1.45453 0.40687,-0.43191 0.75086,-1.14991 0.99561,-2.0781 0.29704,-1.12651 0.51612,-1.52663 1.06521,-1.94544 0.88114,-0.67207 1.05169,-0.66239 1.30851,0.0743 0.15399,0.44174 0.11045,1.09828 -0.16387,2.47122 -0.20546,1.02832 -0.42808,2.36655 -0.4947,2.97384 l -0.12112,1.10416 0.6278,0 c 0.34529,0 0.93234,-0.14703 1.30457,-0.32675 2.15934,-1.04255 2.91443,-1.67893 5.02309,-4.23339 0.73274,-0.88765 1.52864,-1.82142 1.76867,-2.07504 0.59328,-0.62687 0.93498,-1.51306 1.02919,-2.66917 0.0433,-0.53199 0.18087,-1.15796 0.30561,-1.39103 0.12474,-0.23308 0.2268,-0.65194 0.2268,-0.9308 0,-0.27886 0.17902,-0.66903 0.39782,-0.86705 0.23626,-0.21381 0.35445,-0.52584 0.29104,-0.76833 -0.0587,-0.22457 0.0462,-0.64176 0.23313,-0.92708 0.18695,-0.28532 0.33991,-0.74857 0.33991,-1.02945 0,-0.28089 0.14037,-0.56456 0.31193,-0.63039 0.17749,-0.0681 0.25844,-0.2591 0.18782,-0.44314 -0.0683,-0.17789 -0.0337,-0.32344 0.0768,-0.32344 0.11048,0 0.37453,-0.38509 0.58677,-0.85576 0.21225,-0.47068 0.62908,-0.98152 0.92629,-1.13522 0.31276,-0.25813 0.70137,-0.31699 1.10661,-0.30168 0.15231,0.006 0.39788,0.0127 0.74727,0.0843 0.76177,0.15625 0.87073,0.0587 1.06908,1.18028 0.13449,0.76047 0.0872,1.03394 -0.2689,1.55384 -0.23767,0.34703 -0.49779,0.66073 -0.57805,0.69712 -0.0803,0.0364 -0.0957,0.19714 -0.0342,0.35722 0.11177,0.29125 -1.02754,1.57463 -1.39786,1.57463 -0.10806,0 -0.14199,0.14196 -0.0754,0.31548 0.0666,0.17351 0.0163,0.31547 -0.11176,0.31547 -0.12805,0 -0.23282,0.14197 -0.23282,0.31548 0,0.17351 -0.0946,0.31547 -0.21032,0.31547 -0.11567,0 -0.21031,0.17916 -0.21031,0.39814 0,0.21897 -0.14339,0.45315 -0.31864,0.5204 -0.17524,0.0673 -0.40951,0.3613 -0.52058,0.65345 -0.11108,0.29215 -0.2848,0.53119 -0.38604,0.53119 -0.27359,0 -1.4484,1.97158 -1.58597,2.66158 -0.0656,0.32908 -0.17132,1.24598 -0.23491,2.03755 -0.0636,0.79157 -0.2119,1.86886 -0.32958,2.39398 -0.11768,0.52511 -0.16425,1.00447 -0.10349,1.06524 0.0608,0.0608 0.0101,0.23144 -0.11261,0.37928 -0.28184,0.3396 0.10353,1.13696 0.54951,1.13696 0.16938,0 0.77689,-0.26027 1.35003,-0.57837 0.79513,-0.44132 1.16895,-0.82829 1.57749,-1.63298 0.65257,-1.28536 0.69952,-1.995 0.13199,-1.995 -1.11857,0 -1.35544,-0.49864 -0.58202,-1.22524 0.54184,-0.50903 1.03102,-0.56616 1.98879,-0.23228 0.8957,0.31224 0.96074,0.67964 0.24218,1.36806 -0.44974,0.43088 -0.54463,0.63464 -0.35219,0.75626 0.20491,0.12949 0.18166,0.31129 -0.10464,0.81846 -0.20243,0.3586 -0.36805,0.82369 -0.36805,1.03352 0,0.20983 -0.2403,0.6044 -0.53399,0.87681 -0.2937,0.2724 -0.6577,0.77957 -0.8089,1.12702 -0.19342,0.44448 -0.66731,0.83412 -1.59873,1.31448 -2.12074,1.09376 -2.81592,0.86084 -3.0512,-1.02229 -0.10059,-0.80513 -0.0471,-1.49396 0.17384,-2.2379 0.17554,-0.59112 0.2707,-1.26009 0.21147,-1.48661 -0.0592,-0.22652 -0.011,-0.4716 0.10709,-0.54461 0.11915,-0.0736 0.16188,-0.45878 0.096,-0.865 -0.077,-0.4745 -0.0351,-0.73226 0.11901,-0.73226 0.1308,0 0.23783,-0.0946 0.23783,-0.21032 0,-0.46538 -0.59492,-0.17218 -0.72821,0.35889 -0.0786,0.31307 -0.49107,0.94193 -0.91665,1.39747 -1.55095,1.66014 -2.37202,2.44999 -2.54682,2.44999 -0.0983,0 -0.37885,0.42589 -0.62353,0.94642 -0.34406,0.73195 -0.5583,0.94643 -0.9454,0.94643 -0.30182,0 -0.6373,0.20875 -0.84504,0.52579 -0.18948,0.28919 -0.4843,0.5258 -0.65514,0.5258 -0.17085,0 -0.31063,0.0764 -0.31063,0.16984 0,0.22565 -1.50446,0.88174 -2.02189,0.88174 -0.22458,0 -0.61489,-0.14468 -0.86736,-0.32152 z m 13.36063,-13.30637 c 0.3804,-0.54403 1.15786,-1.64442 1.7277,-2.4453 0.67699,-0.95146 1.08209,-1.76295 1.16883,-2.34137 0.21471,-1.43179 0.0975,-1.67073 -0.81923,-1.67073 -0.79119,0 -0.80574,0.015 -1.22576,1.2619 -0.23379,0.69405 -0.51265,1.36821 -0.61969,1.49814 -0.10705,0.12993 -0.13922,0.38063 -0.0715,0.5571 0.0677,0.17647 0.0275,0.37996 -0.0894,0.4522 -0.11688,0.0722 -0.27621,0.55618 -0.35408,1.07544 -0.0779,0.51926 -0.22915,0.99824 -0.33618,1.06438 -0.10703,0.0662 -0.13562,0.30614 -0.0635,0.5333 0.0721,0.22717 0.017,0.55046 -0.12235,0.71842 -0.1394,0.16796 -0.17088,0.30095 -0.07,0.29553 0.10092,-0.005 0.49472,-0.45497 0.87512,-0.99901 z m 16.57019,11.49321 c -0.19436,-0.38961 -0.25596,-0.75776 -0.14956,-0.89385 0.3337,-0.42678 0.46149,-1.39287 0.2392,-1.80823 -0.1415,-0.2644 -0.14937,-0.54477 -0.022,-0.78438 0.7701,-1.44885 1.01437,-2.12597 0.85814,-2.37876 -0.10161,-0.16441 -0.0597,-0.50803 0.10004,-0.82098 0.15113,-0.29603 0.34105,-0.8459 0.42203,-1.22194 0.11617,-0.53945 0.0713,-0.71286 -0.21285,-0.82188 -0.19805,-0.076 -0.52966,-0.0323 -0.73692,0.0972 -0.43549,0.27197 -1.34656,-0.0932 -1.98071,-0.79396 -0.33039,-0.36507 -0.3373,-0.43347 -0.0547,-0.5419 0.17786,-0.0683 0.36992,-0.30205 0.4268,-0.51956 0.0846,-0.32365 0.33869,-0.40694 1.39905,-0.45867 l 1.29563,-0.0632 0.0688,-1.43663 c 0.0379,-0.79014 0.17474,-1.54255 0.30421,-1.67202 0.12947,-0.12947 0.2354,-0.54213 0.2354,-0.91703 0,-0.3749 0.0946,-0.74013 0.21032,-0.81162 0.11567,-0.0715 0.21031,-0.36434 0.21031,-0.65076 0,-0.28643 0.14564,-0.74305 0.32363,-1.01471 0.178,-0.27166 0.30876,-0.57592 0.29057,-0.67613 -0.12297,-0.67773 0.0504,-0.91832 0.66188,-0.91832 0.52055,0 0.62239,0.0716 0.52742,0.37085 -0.0647,0.20397 -0.15799,0.80058 -0.20722,1.32581 -0.0492,0.52523 -0.14961,1.28111 -0.22306,1.67974 -0.0734,0.39864 -0.16934,1.00872 -0.2131,1.35574 -0.0437,0.34702 -0.0981,0.63095 -0.12088,0.63095 -0.0227,0 -0.0645,0.18929 -0.0927,0.42064 -0.0283,0.23135 -0.1624,0.82505 -0.29805,1.31933 -0.13564,0.49429 -0.18814,0.99334 -0.11665,1.10901 0.0715,0.11567 0.63403,0.19384 1.25009,0.17371 1.22442,-0.04 2.47458,0.5071 2.59568,1.13595 0.0586,0.30422 -0.14822,0.34683 -1.57669,0.32486 -0.90427,-0.0139 -1.74806,-0.10528 -1.87509,-0.20306 -0.35601,-0.274 -0.86679,0.45018 -0.98612,1.39813 -0.0582,0.4627 -0.2672,1.45644 -0.46435,2.20833 -0.50202,1.91455 -0.64041,3.90816 -0.28066,4.0431 0.15376,0.0577 0.97261,0.0145 1.81967,-0.096 0.84707,-0.11048 1.60086,-0.14013 1.6751,-0.0659 0.23868,0.23868 -0.28225,0.81994 -0.91675,1.02291 -0.33876,0.10836 -0.80521,0.36404 -1.03656,0.56818 -0.23135,0.20414 -0.72714,0.43598 -1.10175,0.5152 -0.37462,0.0792 -0.73511,0.23141 -0.8011,0.33819 -0.28319,0.4582 -1.11925,0.1875 -1.44642,-0.46833 z m -48.01197,-0.0754 c -0.24909,-0.17448 -0.59129,-0.59465 -0.76044,-0.93371 -0.29204,-0.58542 -0.27701,-0.65069 0.29833,-1.29511 0.53843,-0.60308 0.66345,-0.65239 1.12316,-0.44293 0.2845,0.12963 0.67513,0.47661 0.86807,0.77106 0.26319,0.40168 0.53125,0.53537 1.07343,0.53537 1.01936,0 2.17099,-1.24875 2.17242,-2.35562 6.3e-4,-0.44369 0.12698,-0.85054 0.29405,-0.94643 0.16118,-0.0925 0.34611,-0.49943 0.41095,-0.90429 0.19759,-1.23373 0.25175,-1.4188 0.50419,-1.72298 0.13382,-0.16125 0.27869,-0.63796 0.32192,-1.05935 0.0432,-0.42139 0.198,-0.91004 0.34394,-1.08588 0.14593,-0.17584 0.20238,-0.42157 0.12544,-0.54607 -0.18165,-0.29391 0.28795,-6.34036 0.51433,-6.62244 0.095,-0.11839 0.23761,-0.60876 0.31689,-1.08971 0.0793,-0.48094 0.27626,-1.0488 0.43773,-1.2619 0.16147,-0.2131 0.29659,-0.62669 0.30027,-0.91909 0.004,-0.29239 0.19597,-0.6937 0.42732,-0.89179 0.23135,-0.19808 0.42063,-0.48735 0.42063,-0.64282 0,-1.03405 4.18533,-5.55591 5.80595,-6.27278 0.91707,-0.40567 1.97579,-0.40234 1.97579,0.006 0,0.0974 0.33056,0.15079 0.73457,0.11873 0.40401,-0.0321 0.78962,0.0308 0.85691,0.13968 0.15042,0.24339 -1.57321,2.02221 -2.34993,2.42518 -0.89042,0.46195 -0.89833,0.10347 -0.0142,-0.64079 0.64593,-0.5437 0.74918,-0.72355 0.52311,-0.91117 -0.20752,-0.17223 -0.63228,-0.16059 -1.61373,0.0442 -1.06976,0.22323 -1.44197,0.41233 -1.89017,0.96027 -0.30696,0.37527 -0.77105,0.89282 -1.03132,1.15013 -0.26027,0.2573 -0.47321,0.56851 -0.47321,0.69158 0,0.12306 -0.11831,0.35137 -0.2629,0.50735 -0.56844,0.6132 -1.20932,1.63804 -1.20932,1.93385 0,0.17137 -0.0861,0.3648 -0.19134,0.42984 -0.10524,0.065 -0.30944,0.8041 -0.45377,1.64237 -0.14434,0.83826 -0.35107,1.70015 -0.4594,1.9153 -0.10833,0.21516 -0.23889,1.77676 -0.29015,3.47024 -0.0984,3.25144 -0.30718,4.33645 -1.04639,5.43801 -0.24965,0.37203 -0.51907,1.02371 -0.5987,1.44817 -0.0796,0.42446 -0.32737,1.11241 -0.55053,1.52879 -0.22316,0.41637 -0.40575,0.84396 -0.40575,0.95018 0,0.47854 -1.09977,2.44943 -1.57569,2.82379 -0.29011,0.2282 -0.52748,0.56989 -0.52748,0.7593 0,0.38235 -0.22489,0.50325 -1.15675,0.62187 -0.34702,0.0442 -0.89737,0.18612 -1.22301,0.31545 -0.79593,0.3161 -1.22527,0.29614 -1.76526,-0.0821 z m 131.9771,0.2063 c -0.061,-0.061 -0.0264,-0.51056 0.0769,-0.99901 0.45262,-2.13984 0.44355,-2.5382 -0.0753,-3.30673 -0.27333,-0.40486 -0.70576,-0.82876 -0.96097,-0.94199 -0.76486,-0.33935 -0.75444,-0.76666 0.038,-1.55912 l 0.7381,-0.73809 0.74296,0.35429 c 0.40863,0.19486 0.74507,0.47413 0.74764,0.62059 0.003,0.14647 0.1774,0.49091 0.3885,0.76542 0.38083,0.49523 0.38858,0.49609 0.99433,0.11021 0.33578,-0.2139 0.68619,-0.50949 0.7787,-0.65686 0.27243,-0.43401 1.33648,-0.89889 2.05745,-0.89889 1.18008,0 2.61343,1.20938 2.20897,1.8638 -0.25776,0.41706 -1.39302,0.438 -2.10376,0.0388 -0.80378,-0.45146 -1.54727,-0.36252 -1.97472,0.23623 -0.15116,0.21173 -0.39186,0.38496 -0.53491,0.38496 -0.28544,0 -1.43868,2.94454 -1.48269,3.78571 -0.0151,0.28919 -0.10263,0.6441 -0.19444,0.78869 -0.16386,0.25806 -1.22692,0.36988 -1.44482,0.15198 z m 100.09931,-0.18181 c -0.20241,-0.15364 -0.60517,-0.62883 -0.89503,-1.05597 -0.4852,-0.71498 -0.51151,-0.87176 -0.33136,-1.97488 0.16887,-1.03412 0.13707,-1.31347 -0.23214,-2.03951 -0.23531,-0.4627 -0.53577,-0.9108 -0.66772,-0.99579 -0.41605,-0.26799 -0.976,-0.17405 -0.976,0.16374 0,0.17858 -0.1183,0.30933 -0.26289,0.29056 -0.69127,-0.0898 -0.99901,0.0431 -0.99901,0.43148 0,0.22868 -0.23661,0.57082 -0.52579,0.7603 -0.28919,0.18948 -0.5258,0.52292 -0.5258,0.74096 0,0.21804 -0.0832,0.39645 -0.1848,0.39645 -0.10165,0 -0.29537,0.26026 -0.43052,0.57837 -0.13515,0.3181 -0.43334,0.80524 -0.66265,1.08252 -0.35733,0.43207 -0.48955,0.47107 -0.92478,0.27277 l -0.50786,-0.23139 0.4835,-1.2337 c 0.75765,-1.93329 0.83671,-2.64283 0.34414,-3.08859 -0.22912,-0.20735 -0.65143,-0.37701 -0.93845,-0.37701 -0.65506,0 -2.22619,1.22116 -2.22619,1.73029 0,0.20926 -0.14197,0.43494 -0.31548,0.50152 -0.17351,0.0666 -0.31547,0.266 -0.31547,0.44314 0,0.17714 -0.0871,0.32208 -0.1936,0.32208 -0.10648,0 -0.25455,0.27739 -0.329,0.61641 -0.0745,0.33904 -0.27127,0.7292 -0.43735,0.86703 -0.16607,0.13783 -0.30196,0.42497 -0.30196,0.63808 0,0.34104 -0.55904,0.82292 -0.95469,0.82292 -0.19494,0 0.0554,-1.88258 0.51742,-3.89087 0.42287,-1.83811 0.51253,-2.83928 0.25432,-2.83928 -0.13073,0 -0.23768,0.13661 -0.23768,0.30358 0,0.16697 -0.28847,0.47399 -0.64103,0.68225 -0.35257,0.20827 -0.88017,0.78672 -1.17245,1.28546 -0.29228,0.49873 -0.76095,1.01137 -1.04151,1.1392 -0.28055,0.12783 -0.51009,0.31187 -0.51009,0.40898 0,0.0971 -0.12093,0.17655 -0.26874,0.17655 -0.14779,0 -0.43079,0.18929 -0.62889,0.42064 -0.19808,0.23135 -0.49515,0.42063 -0.66017,0.42063 -0.16499,0 -0.33154,0.0799 -0.37011,0.17762 -0.0385,0.0977 -0.43374,0.23513 -0.87818,0.3054 -0.68303,0.10801 -0.88321,0.0467 -1.29371,-0.39625 -0.26712,-0.28821 -0.61029,-0.94618 -0.76265,-1.46214 -0.15235,-0.51596 -0.35735,-0.93812 -0.45557,-0.93812 -0.0982,0 -0.11773,0.19169 -0.0434,0.42597 0.10574,0.3332 -0.14369,0.69216 -1.14526,1.64817 -1.07159,1.02285 -1.41168,1.22733 -2.08503,1.25372 -0.6422,0.0252 -0.85069,-0.0634 -1.03305,-0.43884 -0.64921,-1.33644 -0.66631,-3.27733 -0.0456,-5.17076 0.53414,-1.62927 0.89126,-2.09303 1.68083,-2.18265 0.65138,-0.0739 0.77797,0.46444 0.33077,1.4068 -0.35173,0.74124 -0.48093,3.99315 -0.16636,4.18756 0.21086,0.13032 1.51555,-0.68353 1.51555,-0.94537 0,-0.10711 0.30758,-0.64581 0.68353,-1.19712 0.37594,-0.55131 0.95715,-1.58162 1.29155,-2.28957 0.47229,-0.99979 0.73056,-1.31073 1.15675,-1.39263 0.3018,-0.058 0.58193,-0.0727 0.6225,-0.0327 0.0406,0.04 -0.0959,0.79254 -0.30332,1.6723 -0.34297,1.45481 -0.34833,1.67847 -0.0593,2.47132 0.68187,1.87012 1.68687,1.5983 4.45006,-1.20362 1.48028,-1.50101 2.14745,-2.02605 2.82511,-2.22329 1.19906,-0.349 1.53147,-0.0659 1.53147,1.30411 0,1.00389 0.0109,1.02151 0.47321,0.76294 0.26027,-0.14557 0.5222,-0.32932 0.58207,-0.40832 0.19682,-0.25969 2.05079,-0.80758 2.50049,-0.73895 0.24216,0.037 0.63324,0.27432 0.86909,0.52747 0.23585,0.25316 0.51978,0.46028 0.63095,0.46028 0.11116,0 0.20212,0.18929 0.20212,0.42063 0,0.44578 0.30632,0.56542 0.52827,0.20632 0.21524,-0.34828 2.19065,-1.27797 2.57689,-1.21277 0.1956,0.033 0.35775,-0.0504 0.36036,-0.18534 0.0114,-0.58743 0.35338,-0.46863 1.25936,0.43736 1.17954,1.17955 1.34311,1.58408 1.14547,2.833 -0.19991,1.26328 0.174,1.90738 1.12755,1.94237 0.37328,0.0137 0.7713,0.006 0.88451,-0.016 0.1132,-0.0225 0.72838,-0.13562 1.36707,-0.25135 0.63867,-0.11573 1.37084,-0.34513 1.62703,-0.50977 0.95068,-0.61092 1.26948,-0.0897 0.42804,0.69974 -0.26027,0.24419 -0.59524,0.5925 -0.7444,0.77404 -0.14915,0.18153 -0.55435,0.33005 -0.90045,0.33005 -0.35346,0 -0.68017,0.13265 -0.74538,0.30263 -0.0639,0.16644 -0.41582,0.36665 -0.78209,0.44492 -0.36629,0.0783 -0.78377,0.23718 -0.92775,0.35315 -0.14396,0.11597 -0.45147,0.16124 -0.68332,0.10061 -0.23186,-0.0606 -0.47454,-0.0245 -0.53932,0.0803 -0.16483,0.2667 -0.55391,0.22641 -0.98674,-0.10215 z m -91.57948,-0.12937 c -0.49716,-0.20031 -0.9076,-0.81751 -0.9076,-1.36479 0,-0.30618 0.63531,-1.71516 1.34918,-2.99222 0.55123,-0.9861 2.52109,-2.28607 4.11907,-2.71831 0.8805,-0.23817 0.97258,-0.22403 1.32196,0.20305 0.40311,0.49277 0.36716,1.83518 -0.0871,3.25444 -0.34306,1.07169 -0.14592,1.31131 1.01864,1.23816 0.55355,-0.0348 1.19574,-0.16265 1.42709,-0.28417 0.23135,-0.12152 0.67144,-0.28079 0.97799,-0.35393 0.36745,-0.0877 0.63136,-0.34528 0.77455,-0.75604 0.25626,-0.7351 1.19038,-1.78667 2.71094,-3.05179 0.91225,-0.75899 1.22305,-0.9023 1.8338,-0.84554 0.40447,0.0376 0.8333,0.12886 0.95296,0.20282 0.28617,0.17686 0.0444,1.13273 -0.447,1.767 -0.21371,0.27587 -0.38856,0.62465 -0.38856,0.77508 0,0.15042 -0.32455,0.39086 -0.72122,0.53429 -0.39668,0.14344 -0.76649,0.43389 -0.82181,0.64544 -0.0653,0.24972 -0.21807,0.33955 -0.43552,0.25611 -0.21013,-0.0806 -0.33494,-0.0165 -0.33494,0.17217 0,0.33404 1.48621,1.14571 2.45129,1.33872 0.42336,0.0847 0.70719,0.0216 0.88917,-0.1977 0.14702,-0.17714 0.75689,-0.48444 1.35529,-0.68288 1.15933,-0.38446 2.34813,-0.98929 2.89275,-1.47175 0.18289,-0.16203 0.38931,-0.23781 0.45872,-0.16841 0.27331,0.27332 -0.14794,0.74775 -1.0144,1.14247 -0.5054,0.23024 -1.07533,0.69495 -1.28258,1.04581 -0.20514,0.34729 -0.53307,0.68224 -0.72871,0.74433 -0.19564,0.0621 -0.40879,0.25126 -0.47367,0.42037 -0.0649,0.1691 -0.30467,0.30747 -0.53282,0.30747 -0.22815,0 -0.47841,0.10288 -0.55613,0.22864 -0.0777,0.12575 -0.32509,0.18058 -0.5497,0.12184 -0.22462,-0.0587 -0.82382,0.0348 -1.33156,0.20775 -0.89493,0.30493 -0.95251,0.29736 -1.88221,-0.24748 -0.52747,-0.30912 -1.14442,-0.79771 -1.37101,-1.08577 -0.33815,-0.42989 -0.52644,-0.4986 -1.05074,-0.38345 -0.35132,0.0772 -0.63877,0.22084 -0.63877,0.31928 0,0.0984 -0.20906,0.20922 -0.46459,0.24619 -0.29291,0.0424 -0.50996,0.26071 -0.58735,0.59088 -0.0828,0.35333 -0.17519,0.43884 -0.28394,0.26289 -0.21551,-0.34871 -0.86767,-0.33119 -1.1686,0.0314 -0.5913,0.71248 -2.57896,0.37861 -2.85112,-0.47891 -0.11776,-0.37101 -0.17761,-0.37958 -0.72929,-0.10437 -0.33055,0.16491 -0.71896,0.44196 -0.86314,0.61568 -0.15084,0.18175 -0.42858,0.26304 -0.65412,0.19146 -0.24833,-0.0788 -0.43838,-0.004 -0.5186,0.20556 -0.14217,0.37049 -0.20787,0.37956 -0.85656,0.1182 z m 2.71988,-2.78086 c 0.5853,-0.40552 1.84077,-2.06767 1.84077,-2.43705 0,-0.11062 -0.28509,-0.24297 -0.63354,-0.29412 -0.54737,-0.0803 -0.77619,0.0603 -1.68253,1.03411 -0.9557,1.02684 -1.29693,1.84787 -0.92329,2.22151 0.1652,0.16519 0.68402,-0.0294 1.39859,-0.52445 z m 45.21157,2.82106 c -0.1485,-0.0976 -0.21303,-0.32601 -0.14339,-0.50749 0.0696,-0.18148 0.0269,-0.3916 -0.095,-0.46693 -0.25335,-0.15658 -0.072,-3.78712 0.2174,-4.35274 0.11397,-0.22275 0.0757,-0.43006 -0.10743,-0.58205 -0.22009,-0.18267 -0.35808,-0.12372 -0.60985,0.26053 -0.17896,0.27313 -0.59316,0.78938 -0.92046,1.14721 -0.32727,0.35784 -0.83166,0.91914 -1.12084,1.24735 -0.72921,0.82761 -1.48381,1.32253 -2.01644,1.32253 -0.24786,0 -0.70092,0.19687 -1.00681,0.43749 -0.30591,0.24062 -0.67358,0.39537 -0.81706,0.34389 -0.14348,-0.0515 -0.43531,-0.004 -0.64851,0.10619 -1.02034,0.52585 -2.55256,-0.96136 -2.29862,-2.2311 0.17967,-0.89835 1.05409,-2.21196 2.0553,-3.08763 1.92484,-1.68348 3.07568,-2.29036 4.04861,-2.13499 0.48833,0.078 0.64046,0.54908 0.25433,0.78771 -0.12036,0.0744 -0.15988,0.32114 -0.0878,0.5483 0.0721,0.22717 0.017,0.55045 -0.12234,0.71841 -0.29312,0.35319 -1.46385,0.41585 -1.46385,0.0784 0,-0.31098 -1.26279,-0.0285 -1.73512,0.38819 -0.20243,0.17856 -0.36806,0.43729 -0.36806,0.57494 0,0.13766 -0.17902,0.4123 -0.39781,0.61031 -0.79424,0.71877 0.1141,1.92759 1.38418,1.84205 0.41506,-0.028 0.95185,-0.18894 1.19286,-0.35774 0.241,-0.16881 0.6042,-0.30692 0.80713,-0.30692 0.44899,0 1.87433,-1.76294 2.71185,-3.35416 0.33802,-0.64221 0.69378,-1.30962 0.79059,-1.48314 0.0968,-0.17351 0.29076,-0.53583 0.43104,-0.80515 0.14085,-0.27037 0.33769,-2.01295 0.43952,-3.89087 0.18186,-3.3539 0.30267,-4.1373 0.638,-4.1373 0.0938,0 0.3098,-0.0534 0.4799,-0.11869 0.23202,-0.089 0.34353,0.10804 0.44627,0.78869 0.1737,1.15063 0.174,1.24684 0.0164,5.53436 -0.0723,1.96647 -0.14068,3.85932 -0.15194,4.20634 -0.0111,0.34703 -0.096,1.47329 -0.18836,2.50281 -0.21767,2.427 -0.10265,2.65038 1.31053,2.54517 0.98681,-0.0735 2.77291,-0.78738 3.55739,-1.4219 0.54401,-0.44001 1.18314,-1.7063 1.46657,-2.90556 0.19917,-0.84289 0.46785,-1.32415 1.0279,-1.84131 l 0.75826,-0.70015 0.0629,1.16789 c 0.0346,0.64234 -0.0268,1.33598 -0.13645,1.54142 -0.35245,0.66035 -0.52554,2.76592 -0.25425,3.09281 0.41325,0.49795 1.73816,0.5944 3.18992,0.23223 1.57829,-0.39374 2.9216,-0.94353 2.9216,-1.19575 0,-0.0981 0.14197,-0.17837 0.31548,-0.17837 0.37314,0 0.38852,0.10147 0.0978,0.64477 -0.11973,0.22375 -0.35953,0.40681 -0.53288,0.40681 -0.17334,0 -0.51061,0.33125 -0.74948,0.73611 -0.25815,0.43753 -0.5992,0.73611 -0.84079,0.73611 -0.22354,0 -0.46015,0.13995 -0.52579,0.31099 -0.0713,0.18593 -0.53574,0.36623 -1.15485,0.44836 -0.56956,0.0756 -1.08377,0.2154 -1.14272,0.31078 -0.0589,0.0954 -0.24157,0.12183 -0.40583,0.0588 -0.16428,-0.063 -0.41674,-0.0417 -0.56102,0.0475 -0.92596,0.57227 -2.27361,0.0172 -2.8662,-1.18054 -0.39323,-0.79475 -0.44817,-0.83198 -0.71039,-0.48123 -0.50445,0.67475 -1.61564,1.32658 -2.26144,1.32658 -0.34597,0 -0.70988,0.14448 -0.80869,0.32106 -0.2051,0.36651 -2.91735,0.64699 -3.37117,0.34863 z m -216.99006,-0.25289 c -0.23554,-0.3811 0.75756,-1.67989 1.62153,-2.12065 l 0.84067,-0.42888 -0.91444,-0.76469 c -1.54445,-1.29152 -3.33309,-3.21185 -3.33309,-3.57848 0,-0.10128 -0.2813,-0.46019 -0.62511,-0.79757 -0.34381,-0.33738 -0.62774,-0.73295 -0.63095,-0.87903 -0.007,-0.33268 -1.5042,-1.94191 -1.80677,-1.94238 -0.35373,-6.3e-4 -1.30111,1.0861 -1.64995,1.89251 -0.17514,0.40486 -0.55839,0.95866 -0.85166,1.23066 -0.29327,0.272 -0.48952,0.56525 -0.4361,0.65168 0.1247,0.20177 -0.73187,1.12995 -0.89356,0.96826 -0.0669,-0.0669 0.0846,-0.40058 0.33663,-0.7415 0.25205,-0.34091 0.45827,-0.65944 0.45827,-0.70784 0,-0.0484 0.15987,-0.45446 0.35528,-0.90236 0.1954,-0.44791 0.36502,-0.8617 0.37692,-0.91953 0.0119,-0.0578 0.2368,-0.57838 0.49975,-1.15675 0.88644,-1.94975 0.9261,-1.8292 -1.55286,-4.71993 -1.2342,-1.43921 -2.32706,-2.83519 -2.42856,-3.10218 -0.10151,-0.26698 -0.27267,-0.48542 -0.38035,-0.48542 -0.21013,0 -1.70748,-1.99245 -1.70748,-2.27205 0,-0.88992 -1.2252,-1.76746 -1.80203,-1.29068 -0.12356,0.10212 -0.54578,0.21203 -0.93827,0.24425 -1.59783,0.13113 -0.74197,-1.60547 1.08832,-2.20829 1.26875,-0.41788 3.68555,-0.64489 3.86003,-0.36257 0.0631,0.10201 0.44597,0.047 0.85095,-0.12218 0.53188,-0.22223 0.84811,-0.24783 1.13893,-0.0922 0.22143,0.11851 0.71615,0.2498 1.09936,0.29175 1.06058,0.11611 0.87803,0.62202 -0.30225,0.83765 -0.89395,0.16332 -0.99893,0.24095 -0.99822,0.73814 0.001,0.75106 0.66138,1.7821 1.96431,3.06708 0.59647,0.58826 1.49824,1.6125 2.00393,2.27607 0.50568,0.66358 0.97979,1.20651 1.05357,1.20651 0.19662,0 0.67619,-0.82085 0.77286,-1.32286 0.046,-0.23866 0.15677,-0.4882 0.24623,-0.55454 0.32818,-0.24334 1.74005,-2.85584 1.74005,-3.21974 0,-0.0996 0.18386,-0.56165 0.40857,-1.02676 l 0.40857,-0.84564 -0.61889,-0.64761 c -0.34038,-0.35619 -0.61888,-0.68994 -0.61888,-0.74169 0,-0.0517 0.2,-0.37496 0.44446,-0.71827 0.28103,-0.39468 0.56151,-0.57928 0.76277,-0.50205 0.17506,0.0672 0.43676,0.0238 0.58154,-0.0963 0.17279,-0.1434 0.4435,-0.14992 0.7879,-0.019 0.35535,0.1351 0.60027,0.12388 0.75891,-0.0348 0.17211,-0.17211 0.3641,-0.11224 0.72379,0.22567 0.26926,0.25296 0.5612,0.45992 0.64876,0.45992 0.51289,0 1.08602,1.34691 0.84281,1.9807 -0.10561,0.27523 -0.36672,0.30933 -1.53628,0.20063 -1.39004,-0.12919 -1.41661,-0.12197 -1.97021,0.53595 -0.30864,0.36681 -0.65794,1.02629 -0.77621,1.46551 -0.11827,0.43923 -0.40469,1.01726 -0.63648,1.28452 -0.2318,0.26726 -0.42145,0.60183 -0.42145,0.74347 0,0.14165 -0.13324,0.36813 -0.2961,0.50329 -0.16286,0.13516 -0.45122,0.57264 -0.64082,0.97218 -0.18959,0.39954 -0.43492,0.72644 -0.54517,0.72644 -0.11024,0 -0.20045,0.1837 -0.20045,0.40822 0,0.22452 -0.0946,0.46671 -0.21031,0.5382 -0.4379,0.27064 -0.172,0.84861 1.00766,2.19021 0.66989,0.76185 1.71822,2.07989 2.32963,2.92897 0.61141,0.84907 1.56299,2.10387 2.11462,2.78843 0.55163,0.68457 1.27269,1.74076 1.60236,2.34709 0.32967,0.60634 0.8175,1.33808 1.08407,1.62608 0.26657,0.288 0.48466,0.64111 0.48466,0.78468 0,0.14357 0.23273,0.31945 0.51717,0.39084 0.28444,0.0714 0.62642,0.26144 0.75994,0.42233 0.13353,0.16089 0.33086,0.23809 0.43851,0.17155 0.30754,-0.19007 1.22883,0.51402 1.22883,0.93913 0,0.749 -1.10544,1.36153 -1.5879,0.87985 -0.2048,-0.20447 -1.76013,-0.0276 -3.34029,0.37985 -0.48662,0.12548 -1.20237,0.14312 -1.73903,0.0429 -0.50573,-0.0945 -0.96267,-0.0885 -1.02569,0.0135 -0.15502,0.25082 -0.66513,0.23217 -0.82731,-0.0303 z m 92.65974,-0.31052 c -1.18432,-0.284 -1.63723,-0.67682 -1.82001,-1.5785 -0.0586,-0.28918 -0.17887,-0.80972 -0.26722,-1.15674 l -0.16063,-0.63095 -0.35982,0.68318 c -0.40994,0.77832 -1.77116,2.081 -2.08048,1.99098 -0.11332,-0.033 -0.31465,0.0302 -0.44739,0.14035 -0.59548,0.4942 -1.71951,-1.30499 -1.53307,-2.45392 0.0686,-0.42252 0.0221,-0.87558 -0.10562,-1.02946 -0.16676,-0.20093 -0.13664,-0.46752 0.11201,-0.99151 0.18705,-0.39418 0.34009,-0.8098 0.34009,-0.92361 0,-0.1138 0.24672,-0.36858 0.54828,-0.56617 0.60113,-0.39387 0.95975,-0.22406 0.92342,0.43726 -0.0121,0.21967 -0.0171,0.91994 -0.0112,1.55615 0.0231,2.4994 0.23884,2.91644 1.09561,2.11824 0.25722,-0.23964 0.52624,-0.4357 0.59783,-0.4357 0.0716,0 0.53113,-0.75257 1.02122,-1.67237 0.6775,-1.27152 0.97176,-1.64141 1.22767,-1.54321 0.20114,0.0772 0.45162,-0.0282 0.62244,-0.26176 0.22509,-0.30782 0.34045,-0.33633 0.54269,-0.13408 0.20225,0.20224 0.20057,0.34696 -0.008,0.68078 -0.14562,0.23317 -0.21697,0.50126 -0.15857,0.59576 0.0584,0.0945 0.0214,0.46741 -0.0822,0.82868 -0.26625,0.92833 0.0918,2.10379 0.68321,2.24316 0.25508,0.0601 0.98432,0.008 1.62053,-0.11484 0.63621,-0.12327 1.39335,-0.24747 1.68254,-0.276 0.28919,-0.0285 0.79222,-0.1654 1.11786,-0.30415 0.68093,-0.29016 0.98579,-0.31944 0.98419,-0.0945 -10e-4,0.18243 -2.0215,1.67883 -2.94393,2.18064 -0.34412,0.1872 -0.74502,0.43588 -0.8909,0.55263 -0.49036,0.39244 -1.0998,0.43568 -2.25063,0.15971 z m 30.68445,-1.59666 c -0.3361,-0.65881 -0.42772,-1.18964 -0.39254,-2.27432 0.0615,-1.89519 -0.13156,-2.21321 -1.2306,-2.02753 -0.69612,0.11761 -0.90325,0.26538 -1.1261,0.80339 -0.15019,0.3626 -0.4191,0.81365 -0.59757,1.00234 -0.17847,0.18868 -0.67492,0.91854 -1.10322,1.62189 -0.63198,1.03784 -0.85987,1.25761 -1.20933,1.16622 -0.23683,-0.0619 -0.42937,-0.12522 -0.42788,-0.14065 10e-4,-0.0154 0.17967,-0.59591 0.39596,-1.28995 0.60044,-1.92673 0.74602,-3.34146 0.37551,-3.64896 -0.43045,-0.35724 -1.3353,0.0822 -1.49716,0.72705 -0.0684,0.27255 -0.40693,0.81736 -0.75228,1.2107 -0.34536,0.39333 -0.62792,0.87914 -0.62792,1.07956 0,0.20042 -0.2542,0.83145 -0.56488,1.40229 -0.5076,0.93262 -0.63024,1.03149 -1.20933,0.97489 -0.51284,-0.0501 -0.62982,-0.14889 -0.57288,-0.48363 0.0394,-0.23135 0.19202,-0.5626 0.33925,-0.73611 0.34409,-0.40552 0.19124,-2.60755 -0.23871,-3.43899 l -0.31169,-0.60274 -0.62146,0.59539 c -0.34181,0.32747 -0.67323,0.78731 -0.7365,1.02186 -0.12164,0.45096 -1.73962,1.87658 -2.74446,2.4182 -0.32833,0.17696 -0.91147,0.54634 -1.29586,0.82083 -0.51694,0.36915 -0.76038,0.43759 -0.93507,0.2629 -0.1299,-0.1299 -0.38873,-0.23618 -0.57519,-0.23618 -0.18647,0 -0.55498,-0.29209 -0.81892,-0.6491 l -0.4799,-0.64909 -0.46706,0.43878 c -0.25688,0.24132 -0.58396,0.43877 -0.72684,0.43877 -0.14288,0 -0.51535,0.12998 -0.82771,0.28884 -1.51987,0.77296 -2.14531,0.50229 -2.14531,-0.92841 0,-0.45092 -0.17512,-1.13163 -0.38915,-1.51269 -0.22624,-0.40281 -0.32325,-0.82368 -0.23174,-1.0054 0.0866,-0.17191 0.32245,-0.71272 0.52416,-1.20179 0.40048,-0.97099 1.2328,-1.69285 1.48374,-1.28683 0.0809,0.13086 0.13162,1.08838 0.11277,2.12782 -0.0351,1.93561 0.13754,2.47491 0.78688,2.45792 0.4382,-0.0115 1.84793,-1.83228 2.04131,-2.63657 0.23624,-0.98256 0.68789,-1.74063 1.26061,-2.11589 0.82162,-0.53835 1.05886,-0.10935 0.53692,0.97093 -0.36657,0.7587 -0.39903,1.04296 -0.22503,1.97049 0.11184,0.59614 0.36235,1.20219 0.5567,1.34678 0.47826,0.35581 1.22603,0.33139 1.61,-0.0526 0.17351,-0.17352 0.38563,-0.31548 0.47138,-0.31548 0.0857,0 1.12385,-1.00256 2.30689,-2.22792 2.13385,-2.21016 2.66139,-2.51613 3.04853,-1.76811 0.0898,0.17351 0.35478,0.75245 0.58885,1.28652 l 0.42557,0.97105 1.28077,-1.23394 c 0.70442,-0.67867 1.4614,-1.23395 1.68219,-1.23395 0.22078,0 0.45992,-0.0946 0.53141,-0.21031 0.0715,-0.11568 0.21259,-0.21032 0.31356,-0.21032 0.30055,0 1.07783,1.22098 1.13829,1.78808 0.0875,0.82099 0.26504,0.83889 1.00279,0.10113 1.38875,-1.38874 2.68401,-1.46803 3.38827,-0.20742 0.29534,0.52866 0.36371,0.93508 0.26644,1.58373 -0.19196,1.28008 0.11903,1.91065 1.02625,2.08084 0.41321,0.0775 0.75129,0.2313 0.75129,0.34174 0,0.11043 0.0947,0.20078 0.21032,0.20078 0.11568,0 0.21032,-0.14196 0.21032,-0.31547 0,-0.19704 0.21714,-0.32618 0.57837,-0.34398 2.05974,-0.10151 2.36607,-0.0845 2.36607,0.13108 0,0.35302 -0.45785,0.73869 -0.87693,0.73869 -0.2047,0 -0.7159,0.19306 -1.136,0.42901 -1.12675,0.63286 -2.40533,1.03668 -3.29331,1.04015 -0.70734,0.003 -0.82749,-0.0814 -1.22284,-0.85634 z m -22.17922,-4.60885 c 0.0715,-0.11567 0.0298,-0.21031 -0.0927,-0.21031 -0.1225,0 -0.22273,0.0946 -0.22273,0.21031 0,0.11568 0.0417,0.21032 0.0928,0.21032 0.051,0 0.15123,-0.0946 0.22273,-0.21032 z m 103.71059,-5.77632 c -0.47784,-0.72929 -0.42718,-1.02035 0.26702,-1.53358 0.50867,-0.37608 0.66586,-0.40526 0.97305,-0.18064 0.30298,0.22154 0.3237,0.34765 0.11971,0.72881 -0.13567,0.2535 -0.1941,0.54596 -0.12987,0.64992 0.12335,0.19956 -0.42774,0.85388 -0.71914,0.85388 -0.0941,0 -0.32395,-0.23328 -0.51077,-0.51839 z m 21.95718,-1.7891 c -0.35495,-0.66323 -0.2621,-1.2679 0.19469,-1.2679 0.22452,0 0.46672,-0.0946 0.5382,-0.21032 0.24082,-0.38963 0.87709,-0.21434 1.11466,0.30709 0.20813,0.45681 0.16899,0.56363 -0.33429,0.9122 -0.92397,0.63992 -1.27703,0.70033 -1.51326,0.25893 z"
       id="path3034"
       inkscape:connector-curvature="0"
       sodipodi:nodetypes="cscccccccccccscsccccsscccccssccssssccsccsscccccscccsccsccscccscsccccccccscsssccscccsccssscsccccsccscccccscccscscccccscscsscsssscsccscsscssscccccsssscscccccsccccscscsccsscsscccccccccsccssscscsccccsccccsssccsccssssssscsscssssccscccsccsscssscccscssssccsccsccscssssscsscscsccccsscsssscssscccssssccccccccccccscscscccccsccsscsccsccccscccscsccsccccsccccccsscsccsscccccsccssscsscccscscscccsscsssscsccccssccscsscssscscscccscccscscsscssccssscssccssssssscsscsccccscsccccccsccccccsssscccsscccssscscsssccccccccssssccscsscccscscsccsccssccscccsscsccccccccccccscscccccssscsscccssccccscscccssccssccscccscccssssssssssccccccssccccscsssccsscscsccsscssccscccsscscsccscccscccccsscscscsscsscsssssscccssscccccccccccccsssccsssccccsccccccssccccsscsccssccsccccscsccsssccssssccscscssscsssssccsscscssscsssssscccccsssccccsscscsscscs" />
  </g>
</svg>
